<?xml version="1.0" encoding="utf-8"?>
<!-- Generator: Adobe Illustrator 17.0.0, SVG Export Plug-In . SVG Version: 6.00 Build 0)  -->
<!DOCTYPE svg PUBLIC "-//W3C//DTD SVG 1.1//EN" "http://www.w3.org/Graphics/SVG/1.1/DTD/svg11.dtd">
<svg version="1.1" id="Layer_1" xmlns="http://www.w3.org/2000/svg" xmlns:xlink="http://www.w3.org/1999/xlink" x="0px" y="0px"
	 width="100px" height="100px" viewBox="0 0 100 100" style="enable-background:new 0 0 100 100;" xml:space="preserve">
<path style="fill:#AAAAAA;" d="M23.221,0C10.46,0,3.379,14.414,3.379,30.338c0,14.702,6.003,29.583,19.662,29.583
	c9.921,0,19.375-9.634,19.375-30.338C42.415,16.068,37.779,0,23.221,0z M23.041,49.389c-4.637,0-6.578-6.901-6.434-19.518
	c0-12.293,2.085-19.518,6.434-19.518c4.817,0,6.183,8.267,6.183,19.698C29.224,42.2,27.714,49.389,23.041,49.389z M81.308,0
	L28.9,100H18.548L71.1,0H81.308z M77.39,39.935c-12.761,0-19.806,14.414-19.806,30.194c0,14.558,6.003,29.547,19.662,29.547
	c9.921,0,19.375-9.598,19.375-30.302C96.621,56.003,91.948,39.935,77.39,39.935z M77.247,89.18c-4.493,0-6.614-6.901-6.47-19.518
	c0-12.293,2.121-19.375,6.47-19.375c4.817,0,6.147,8.124,6.147,19.519C83.393,81.956,81.74,89.18,77.247,89.18z"/>
</svg>
